<svg   id="chart"   width="1000"   height="500"   viewBox="0 0 1000 500"   xmlns="http://www.w3.org/2000/svg" >      <path d="M 0,60.03252468941747 C 16.6,100.0944362666709 49.80000000000001,192.9716459363842 83,260.3420825756845 C 116.19999999999999,327.7125192149848 132.8,425.61986420536357 166,396.88470788591906 C 199.2,368.14955156647454 215.8,131.5999567520373 249,116.666300978462 C 282.2,101.73264520488672 298.8,299.54960411736823 332,322.2164290180426 C 365.2,344.883253918717 381.8,283.4472575902012 415,230.00042548183404 C 448.2,176.55359337346687 464.8,85.63734158335697 498,54.9822684762068 C 531.2,24.327195369056643 547.8,21.592876977510507 581,76.72505994608326 C 614.2,131.85724291465604 630.8,299.83748175978155 664,330.64318331907066 C 697.2,361.44888487835976 713.8,263.3459504077748 747,230.75356774252884 C 780.2,198.16118507728288 796.8,191.52586078910198 830,167.68126999284095 C 863.2,143.83667919657995 879.8,103.69105753650587 913,111.53061376122378 C 946.2,119.3701699859417 979.4,187.8093636453892 996,206.87905111643056,L 1000 500,L 0 500Z" fill="#444cf71a" />   <path d="M 0,60.03252468941747 C 16.6,100.0944362666709 49.80000000000001,192.9716459363842 83,260.3420825756845 C 116.19999999999999,327.7125192149848 132.8,425.61986420536357 166,396.88470788591906 C 199.2,368.14955156647454 215.8,131.5999567520373 249,116.666300978462 C 282.2,101.73264520488672 298.8,299.54960411736823 332,322.2164290180426 C 365.2,344.883253918717 381.8,283.4472575902012 415,230.00042548183404 C 448.2,176.55359337346687 464.8,85.63734158335697 498,54.9822684762068 C 531.2,24.327195369056643 547.8,21.592876977510507 581,76.72505994608326 C 614.2,131.85724291465604 630.8,299.83748175978155 664,330.64318331907066 C 697.2,361.44888487835976 713.8,263.3459504077748 747,230.75356774252884 C 780.2,198.16118507728288 796.8,191.52586078910198 830,167.68126999284095 C 863.2,143.83667919657995 879.8,103.69105753650587 913,111.53061376122378 C 946.2,119.3701699859417 979.4,187.8093636453892 996,206.87905111643056" fill="none" stroke="#444cf7" stroke-width="2px" />   <g>   		<circle cx="0" cy="60.03252468941747" r="6" fill="#444cf7" />,		<circle cx="83" cy="260.3420825756845" r="6" fill="#444cf7" />,		<circle cx="166" cy="396.88470788591906" r="6" fill="#444cf7" />,		<circle cx="249" cy="116.666300978462" r="6" fill="#444cf7" />,		<circle cx="332" cy="322.2164290180426" r="6" fill="#444cf7" />,		<circle cx="415" cy="230.00042548183404" r="6" fill="#444cf7" />,		<circle cx="498" cy="54.9822684762068" r="6" fill="#444cf7" />,		<circle cx="581" cy="76.72505994608326" r="6" fill="#444cf7" />,		<circle cx="664" cy="330.64318331907066" r="6" fill="#444cf7" />,		<circle cx="747" cy="230.75356774252884" r="6" fill="#444cf7" />,		<circle cx="830" cy="167.68126999284095" r="6" fill="#444cf7" />,		<circle cx="913" cy="111.53061376122378" r="6" fill="#444cf7" />,		<circle cx="996" cy="206.87905111643056" r="6" fill="#444cf7" />   </g> </svg>